{"title":"Luther-AC3-5,1-DVDRip[Eng]2003","uid":5170880,"size":1463295884,"categoryP":"video","categoryS":"movies","magnet":"?xt=urn:btih:fef76448d5cac4c5b1b38044fe551a123d3883c8&amp;dn=Luther-AC3-5%2C1-DVDRip%5BEng%5D2003&amp;tr=udp%3A%2F%2Ftracker.openbittorrent.com%3A80&amp;tr=udp%3A%2F%2Fopen.demonii.com%3A1337&amp;tr=udp%3A%2F%2Ftracker.coppersurfer.tk%3A6969&amp;tr=udp%3A%2F%2Fexodus.desync.com%3A6969","seeders":7,"leechers":0,"uploader":"FatFreddy31","files":-1,"time":1258675353,"description":" &lt;a href=&quot;http://www.imdb.com/title/tt0309820/&quot; rel=&quot;nofollow&quot; target=&quot;_NEW&quot;&gt;http://www.imdb.com/title/tt0309820/&lt;/a&gt;\n\nUser Rating:6.9/10 - 5,429 votes\n\nBiography/Drama/History\n\nDirector:Eric Till\n\nCast:Joseph Fiennes/Alfred Molina/Jonathan Firth/Bruno Ganz, and others.\n\nPlot:\nBiography of Martin Luther, the 16th-century priest who led the Christian\nReformation and opened up new possibilities in exploration of faith. The film begins with his vow to become a monk, and continues through his struggles to reconcile his desire for sanctification with his increasing abhorrence of the corruption and hypocrisy pervading the Church's hierarchy. He is ultimately charged with heresy and must confront the ruling cardinals and princes, urging them to make the Scriptures available to the common believer and lead the Church toward faith through justice and righteousness...\n\nInfo:\n\nCovers included.\n\nGeneral\nComplete name                    : Luther-AC3-5,1-DVDRip[Eng]2003.avi\nFormat                           : AVI\nFormat/Info                      : Audio Video Interleave\nFile size                        : 1.36 GiB\nDuration                         : 1h 58mn\nOverall bit rate                 : 1 647 Kbps\nWriting application              : VirtualDubMod 1.5.4.1 (build 2178/release)\nWriting library                  : VirtualDubMod build 2178/release\n\nVideo\nID                               : 0\nFormat                           : MPEG-4 Visual\nFormat profile                   : Simple@L3\nFormat settings, BVOP            : No\nFormat settings, QPel            : No\nFormat settings, GMC             : No warppoints\nFormat settings, Matrix          : Default (H.263)\nCodec ID                         : XVID\nCodec ID/Hint                    : XviD\nDuration                         : 1h 58mn\nBit rate                         : 1 189 Kbps\nWidth                            : 640 pixels\nHeight                           : 352 pixels\nDisplay aspect ratio             : 16:9\nFrame rate                       : 25.000 fps\nResolution                       : 24 bits\nColorimetry                      : 4:2:0\nScan type                        : Progressive\nBits/(Pixel*Frame)               : 0.211\nStream size                      : 1 007 MiB (72%)\nWriting library                  : XviD 1.1.2 (UTC 2006-11-01)\n\nAudio\nID                               : 1\nFormat                           : AC-3\nFormat/Info                      : Audio Coding 3\nCodec ID                         : 2000\nDuration                         : 1h 58mn\nBit rate mode                    : Constant\nBit rate                         : 448 Kbps\nChannel(s)                       : 6 channels\nChannel positions                : Front: L C R, Surround: L R, LFE\nSampling rate                    : 48.0 KHz\nStream size                      : 380 MiB (27%)\nAlignment                        : Split accross interleaves\nInterleave, duration             : 40 ms (1.00 video frame)\nInterleave, preload duration     : 500 ms\n\nEnjoy...","torrent":{"xt":"urn:btih:fef76448d5cac4c5b1b38044fe551a123d3883c8","amp;dn":"Luther-AC3-5%2C1-DVDRip%5BEng%5D2003","amp;tr":["udp%3A%2F%2Ftracker.openbittorrent.com%3A80","udp%3A%2F%2Fopen.demonii.com%3A1337","udp%3A%2F%2Ftracker.coppersurfer.tk%3A6969","udp%3A%2F%2Fexodus.desync.com%3A6969"],"infoHash":"fef76448d5cac4c5b1b38044fe551a123d3883c8","infoHashBuffer":{"type":"Buffer","data":[254,247,100,72,213,202,196,197,177,179,128,68,254,85,26,18,61,56,131,200]},"announce":[],"urlList":[]}}